<?xml version="1.0" encoding="UTF-8"?><svg id="Layer_2" xmlns="http://www.w3.org/2000/svg" width="100" height="100" xmlns:xlink="http://www.w3.org/1999/xlink" viewBox="0 0 100 100"><defs><style>.cls-1{fill:url(#New_Gradient_Swatch-4);}.cls-2{fill:url(#New_Gradient_Swatch-2);}.cls-3{fill:url(#New_Gradient_Swatch);}.cls-4{fill:url(#New_Gradient_Swatch-3);}</style><linearGradient id="New_Gradient_Swatch" x1="14.5" y1="50" x2="85.5" y2="50" gradientUnits="userSpaceOnUse"><stop offset="0" stop-color="#e17bb1"/><stop offset="1" stop-color="#4a4ca0"/></linearGradient><linearGradient id="New_Gradient_Swatch-2" x1="31.3" y1="37.9" x2="65.6" y2="37.9" xlink:href="#New_Gradient_Swatch"/><linearGradient id="New_Gradient_Swatch-3" x1="42.7" y1="53.3" x2="54.2" y2="53.3" xlink:href="#New_Gradient_Swatch"/><linearGradient id="New_Gradient_Swatch-4" x1="60.9" y1="88.2" x2="70.3" y2="88.2" xlink:href="#New_Gradient_Swatch"/></defs><path class="cls-3" d="M79.6,98.5c-.4,1.4-1.7,1.5-2.9,1.5H28.8c-2.1,0-3.9-.6-5.2-2.4s-1-1.8-1-2.8v-16.7c0-5.1,4.6-9.4,9.6-9.4h10c.1-1.4,0-2.4,0-3.7-9.8-2.5-17.1-10-19.3-20-4.9-.5-8.4-4.5-8.4-9.2s3.4-9.2,8.3-9.3h3.4c1.2-2.1,3.1-4.4,4.7-5.9,4.5-4,10.1-6.5,16.3-6.7v-5.3c-2.2-.7-3.4-2.7-3.1-4.8S46.2,0,48.4,0s4,1.5,4.3,3.5-.8,4.3-3.1,5v5.3c8.2.4,15.7,4.6,20.3,11.4,1.2,1.7.4.9,3.6,1.1s6.5,2.5,7.9,5.5.9,7.3-1.6,10-3.5,2.7-5.6,3-.5.2-.6.5c-.7,3.2-2,6.1-3.8,8.8-3.6,5.3-9,9-15.3,10.7-.2,1.2,0,2.4,0,3.7h10c2.7,0,5.7,1.7,7.3,3.8s1.6,2.5,2,4h9.2c.7,0,1.3.3,1.7.7s.7,1.2.5,2l-5.7,19.4ZM50.4,4.8c.3-1.2-.8-2.4-2-2.4s-1.9.9-2,1.9.7,1.9,1.7,2.1,2-.4,2.3-1.5ZM62.9,58.4c1.7-1.4,2.2-1.8,3.5-3.3,8.3-9.6,7.4-23.9-1.9-32.5-8.7-8.1-22-8.5-31.2-.9s-8.9,11.9-8.5,19.4,4.2,14,10.3,18.2c8.4,5.8,19.7,5.5,27.7-.9ZM24.8,28.9c-4.1-.5-7.4,2.4-7.9,6-.5,3.6,1.9,7.1,5.7,7.7-.6-4.9.3-9.3,2.2-13.7ZM77.7,40.8c3-2.8,2.9-7.4,0-10.2s-3.5-2.1-5.7-1.8c2,4.3,2.8,8.9,2.3,13.7,1.4-.2,2.4-.9,3.5-1.7ZM52.2,65.4c-3.2.5-4.7.3-7.7,0v3.4c2.6.5,5.2.4,7.7,0v-3.4ZM47.9,90.1l3.5-11.9c.2-1,.9-1.6,1.9-1.7h18.1c-1.1-3.3-4-5.5-7.4-5.5h-10.4c-2.2.6-4.4.6-6.6.6s-2.6-.5-3.9-.6c-3.6-.1-7,0-10.6,0s-7.5,3.3-7.5,7.4v16.1c0,1.4,1.4,3.2,3.2,3.2h17.5s1.5-5.2,1.5-5.2h-10.6c-.6,0-.8-.8-.8-1.2s.3-1.1.9-1.1h11.2ZM76.7,97.7c.3,0,.5-.1.8-.2l5.6-18.8c-1,0-1.8,0-2.7,0h-22c0,0-4.8.2-4.8.2l-5.4,18.8c.6,0,1.1.2,1.6.2h9s18-.1,18-.1Z"/><path class="cls-2" d="M64.6,42.1c-1.6,3.3-4.9,5.7-8.6,5.7h-15.8c-5-.6-8.8-4.5-9-9.6s1.4-6,3.8-7.9c3.8-2.9,8.8-2.8,12.6-.1s1.5.1,2.1-.3c3.8-2.6,8.9-2.3,12.4.7s4.4,7.4,2.5,11.5ZM56.1,45.4c1.8,0,3.3-.9,4.5-1.9,2.7-2.3,3.4-6,1.6-9s-7.8-5.2-11.6-2.3-3.3.8-4.6,0c-2.1-1.5-4.6-2-7.2-1.1s-3.9,2.3-4.7,4.5l-.2.5c-.7,2.2-.3,4.5,1.1,6.4s3.6,3.1,6,3.1h15Z"/><path class="cls-4" d="M54.1,53.8c-.1.5-.4.6-.9.7h-9.5c-.7,0-1.1-.7-1.1-1.2s.4-1.2,1.2-1.2h9.3c.4,0,.7.3.8.5.2.4.2.7,0,1.1Z"/><path class="cls-1" d="M68.5,84.5c2.1,1.6,2.5,4.9.5,6.9s-4.6,2-6.5.4-2.1-4.6-.6-6.5,4.5-2.3,6.5-.8ZM65.4,85.9c-1.3,0-2.3,1.4-2.1,2.6s1.3,2.2,2.5,2.1,2.3-1.2,2.1-2.5-1.1-2.2-2.5-2.1Z"/></svg>