<?xml version="1.0" encoding="UTF-8"?><svg id="Layer_1" xmlns="http://www.w3.org/2000/svg" width="100" height="100" xmlns:xlink="http://www.w3.org/1999/xlink" viewBox="0 0 100 100"><defs><style>.cls-1{fill:url(#linear-gradient-2);}.cls-2{fill:url(#New_Gradient_Swatch-2);}.cls-3{fill:url(#New_Gradient_Swatch);}.cls-4{fill:#4a4ca0;}.cls-5{fill:url(#linear-gradient);}</style><linearGradient id="New_Gradient_Swatch" x1="-2.1" y1="49.7" x2="96.9" y2="50.6" gradientUnits="userSpaceOnUse"><stop offset="0" stop-color="#e17bb1"/><stop offset="1" stop-color="#4a4ca0"/></linearGradient><linearGradient id="linear-gradient" x1="8.9" y1="81.6" x2="107.8" y2="82.4" gradientUnits="userSpaceOnUse"><stop offset="0" stop-color="#e17bb1"/><stop offset=".1" stop-color="#da79b0"/><stop offset=".3" stop-color="#c873ae"/><stop offset=".4" stop-color="#ab6aab"/><stop offset=".6" stop-color="#835ea6"/><stop offset=".8" stop-color="#4f4ea0"/><stop offset=".8" stop-color="#4a4da0"/><stop offset="1" stop-color="#4a4ca0"/></linearGradient><linearGradient id="linear-gradient-2" x1="-2.3" y1="81.4" x2="96.6" y2="82.2" gradientUnits="userSpaceOnUse"><stop offset="0" stop-color="#4a4ca0"/><stop offset="1" stop-color="#4a4da0"/></linearGradient><linearGradient id="New_Gradient_Swatch-2" x1="15.4" y1="35.5" x2="77.4" y2="36.1" xlink:href="#New_Gradient_Swatch"/></defs><path class="cls-3" d="M82.8,30c2-7.5-1.5-15.1-8.2-18.5-6.7-3.4-14.8-1.6-19.7,4.4-5-9.5-16.1-13.7-26.1-10.2-9.9,3.5-15.8,13.8-13.7,24.3C6.5,30.4-.1,37.7,0,46.1c.1,8.4,6.9,15.5,15.5,15.7h31.4c0,1.1,0,2.1,0,3.2h-19.4c-.6,0-1.2.4-1.2,1.1v28.3c0,.7.5,1.1,1.2,1.1h47.1c.7,0,1.2-.5,1.2-1.1v-28.4c0-.6-.6-1-1.2-1h-19.4s0-3.2,0-3.2h28.3c9.2.3,16.6-7.3,16.4-16.4-.3-9.1-8-16.2-17.2-15.4ZM55.3,67.3h18.2s0,25.9,0,25.9H28.7s0-25.9,0-25.9h18.2c.2.5,0,.9.1,1.4,0,.6.5,1,1.1,1h6c.5,0,1-.4,1.1-1,0-.6,0-1,0-1.5ZM46.8,53.9l4.3-7.5,4.3,7.5c-.5.2-.9,0-1.3,0-.7,0-1.2.5-1.2,1.2v12.2c-1.2.1-2.3.1-3.6,0v-12.3c0-.7-.6-1.2-1.2-1.2-.4,0-.8,0-1.3,0ZM84.1,59.5h-28.9s0-3.2,0-3.2h2.3c.6,0,1.4-.8,1-1.6l-6.4-11.3c-.2-.4-.7-.5-1-.5-.4,0-.8.1-1,.5l-6.5,11.2c-.2.4,0,.8.1,1.1.1.3.5.5.9.5h2.3c0,1.1,0,2.1,0,3.2H15.5c-7.6,0-13.4-6.7-13.2-14,.3-7.5,6.6-13.5,14.2-13.1.4,0,.7-.1,1-.4.2-.2.4-.6.3-1-1.7-6.3-.2-13,4.2-17.9,4.5-5,11.2-7.2,18-5.8,5.9,1.2,11.2,5.5,13.6,11.5.2.4.6.7.9.7.4,0,.9-.1,1.2-.6,3.7-6.2,11.4-8.4,17.7-5.3,6.4,3.2,9.3,10.7,6.5,17.4-.2.4,0,.8.1,1.2.2.3.7.6,1.2.5,7.9-1.6,15.4,3.9,16.3,11.8.9,7.9-5.3,15.1-13.5,15.1Z"/><path class="cls-5" d="M47.5,75c-.4-.3-1.1-.4-1.5,0l-6,6c-.5.5-.5,1.3,0,1.8l6.1,6c.5.5,1.3.2,1.6-.3.3-.5.3-1.1-.2-1.6l-5.1-5.1,5.2-5.2c.5-.5.3-1.2-.1-1.6Z"/><path class="cls-1" d="M55,76.7l5.1,5.2-5.1,5.1c-.5.5-.5,1.2,0,1.7.3.4,1.1.6,1.7,0l6-6c.5-.5.5-1.2,0-1.7l-6-6c-.5-.5-1.3-.4-1.6,0-.4.4-.5,1.2,0,1.6Z"/><path class="cls-4" d="M52.1,73.2c-.5,0-1.2.3-1.2,1l-1.8,14.9c0,.8.3,1.4,1,1.4.6,0,1.2-.3,1.3-1.2l1.8-14.8c0-.7-.4-1.3-1.1-1.3Z"/><path class="cls-2" d="M68.5,33.7c1.3-4.7-1-9.5-5.2-11.6-4.2-2.1-9.3-1-12.3,2.7-3.2-6-10.1-8.6-16.3-6.4-6.2,2.2-9.9,8.7-8.6,15.2-5.5.3-9.6,4.8-9.5,10.1,0,5.3,4.3,9.7,9.7,9.8h3.2s0-1.5,0-1.5h-3.2c-4.8,0-8.4-4.2-8.3-8.8.2-4.7,4.1-8.5,8.9-8.2.3,0,.5,0,.6-.2.1-.1.3-.4.2-.6-1.1-4-.1-8.2,2.6-11.2,2.9-3.1,7-4.5,11.3-3.7,3.7.8,7,3.4,8.5,7.2.1.3.4.4.6.4.3,0,.6,0,.7-.4,2.3-3.9,7.2-5.3,11.1-3.3,4,2,5.8,6.7,4.1,10.9-.1.3,0,.5,0,.7.1.2.4.4.7.3,5-1,9.7,2.4,10.2,7.4.6,5-3.3,9.5-8.4,9.5h-.7s0,1.5,0,1.5h.4c5.8.2,10.4-4.6,10.3-10.3-.2-5.7-5-10.1-10.8-9.7Z"/></svg>