<?xml version="1.0" encoding="UTF-8"?><svg id="Layer_4" xmlns="http://www.w3.org/2000/svg" width="100" height="100" xmlns:xlink="http://www.w3.org/1999/xlink" viewBox="0 0 100 100"><defs><style>.cls-1{fill:url(#New_Gradient_Swatch-4);}.cls-2{fill:url(#New_Gradient_Swatch-5);}.cls-3{fill:url(#New_Gradient_Swatch-2);}.cls-4{fill:url(#New_Gradient_Swatch-6);}.cls-5{fill:url(#New_Gradient_Swatch-7);}.cls-6{fill:url(#New_Gradient_Swatch);}.cls-7{fill:url(#New_Gradient_Swatch-3);}</style><linearGradient id="New_Gradient_Swatch" x1="2.7" y1="72.1" x2="94.6" y2="72.1" gradientUnits="userSpaceOnUse"><stop offset="0" stop-color="#e17bb1"/><stop offset="1" stop-color="#4a4ca0"/></linearGradient><linearGradient id="New_Gradient_Swatch-2" y1="43.8" y2="43.8" xlink:href="#New_Gradient_Swatch"/><linearGradient id="New_Gradient_Swatch-3" y1="68.6" y2="68.6" xlink:href="#New_Gradient_Swatch"/><linearGradient id="New_Gradient_Swatch-4" y1="27.1" y2="27.1" xlink:href="#New_Gradient_Swatch"/><linearGradient id="New_Gradient_Swatch-5" y1="27.1" y2="27.1" xlink:href="#New_Gradient_Swatch"/><linearGradient id="New_Gradient_Swatch-6" y1="11" y2="11" xlink:href="#New_Gradient_Swatch"/><linearGradient id="New_Gradient_Swatch-7" y1="43.8" y2="43.8" xlink:href="#New_Gradient_Swatch"/></defs><path class="cls-6" d="M78.5,50.2c-.6-1.9-1.6-3.7-.3-4.5s1.5-.4,2,.3.7,1.4,1,2.4l6.9.9c1.5.2,2,.9,2.2,2.2.6,4.4.7,8.8,0,13.2s-.3,1.8-1.2,1.9l-7.8,1.1c-.6,1.8-1.3,3.5-2.1,5.2s.1.6.2.7l4.3,5.8c.5.6,0,1.6-.4,2.2-3.2,4.3-5.6,6.8-10,9.8s-1.4.5-2,0l-5.3-4c-.5-.4-.7-.5-1.4-.2-1.5.7-3.1,1.5-4.7,2-.2.9-1.1,6.8-1.1,7.2,0,1.1-.9,1.6-1.8,1.7-4.2.7-10.4.8-14.6-.2s-1-1.3-1.1-2l-.9-6.7c-2.3-.5-3.5-1.5-5.5-2.1l-5.8,4.4c-.7.5-1.6.5-2.3,0l-1.9-1.4-2.9-2.5c-2.1-1.8-3.6-4-5.3-6.2s-.4-1.6.1-2.3l3.8-5c.5-.6.6-1.1.1-1.8-.8-1.3-1.2-2.9-1.8-4.4-.7-.5-1.5-.3-2.3-.4l-2.7-.4-2.8-.4c-1-.1-1.1-1.4-1.2-2.1-.7-4.4-.6-8.8,0-13.2s.8-1.9,2.1-2.1l6.8-.9.7-1.9c.3-.9,1.1-1.2,1.9-.9s1.3,1.1,1,2l-.9,2.7c-.2.7-.8,1-1.5,1.1l-3.2.5c-1.3.2-2.7.2-3.9.7-.5,2.2-.3,4.2-.4,6.4s0,3.3.4,5c1.1.5,4.1.6,5.5.9l1.9.4c.5,0,.9.3,1,.8.7,2.1,1.4,4.2,2.5,6.2s.7,1.7,0,2.7l-4.2,5.6c1.2,2.2,5.9,6.7,7.9,8s.6-.1.7-.2l5.8-4.3c.7-.5,1.6.2,2.1.5,1.9,1.1,4,1.8,6,2.4s.9.9,1,1.6c.4,2.4.5,4.4,1,6.9,1.5.6,3,.3,4.4.5s1.9,0,3,0,2.8,0,4.2-.5l1.1-7.2c0-.6.4-1.2,1-1.3,2-.6,3.9-1.3,5.8-2.3s1.7-1,2.4-.4l6.2,4.6c1.4-1,2.6-2,3.8-3.3s2.1-1.9,2.8-3.1c.6-.5,1.1-1.2,1.4-1.9-1-1.6-2.1-2.9-3.2-4.3s-1.9-2.4-1.1-3.8c1.1-2.1,2-4.2,2.6-6.4s.7-.7,1.1-.7l4.3-.7c1-.2,2-.1,3.1-.4.6-2,.4-4.1.5-6.2s0-3.6-.5-5.4l-6.9-.9c-.8-.1-1.4-.3-1.7-1.1Z"/><path class="cls-3" d="M58.1,62.9c-8.4,3.6-18,1.2-23.8-5.5-5.9-6.8-6.7-16.5-2.1-24.3.7-1.3,1.6-2.2,2.5-3.4s1.1-1.2,1.8-1.8c5.1-4.3,11.7-5.9,18.3-4.4s11.2,5.6,13.9,11.2c5.1,10.5.3,23.4-10.6,28ZM67.4,45.8c1.3-10.8-7.7-20.2-18.6-19.5s-16.3,8.1-16.4,17.2c-.1,9,6.4,16.5,15.2,17.7s18.6-5.5,19.7-15.4Z"/><path class="cls-7" d="M70.3,57.2c0-.9.3-1.6,1.2-1.8s1.7,0,1.8,1c.8,8.3-2.9,16.2-9.7,21.1-9.5,6.9-23.2,5.5-31.1-3.4s-6.5-11.3-5.8-17.8,1.1-.9,1.5-.9,1.4.5,1.4,1.2c-.2,4.8.7,9,3.2,12.9,5.7,8.8,17.1,12,26.5,7s11-10.3,11-16.6v-2.7Z"/><path class="cls-1" d="M19.7,41.5c-.7.7-1.8.7-2.5,0l-8.1-8.2c-.7-.7-.3-1.7.2-2.2s1.5-.6,2.2,0l5.5,5.3V13.9c0-1,.6-1.6,1.4-1.7s1.7.3,1.7,1.3v22.8c0,0,5.6-5.4,5.6-5.4.7-.7,1.8-.3,2.2.3s.4,1.6-.2,2.3l-8,7.9Z"/><path class="cls-2" d="M80,41.2l-7.7-7.8c-.6-.6-.7-1.3-.3-2s1.1-1.2,1.9-.7c1.8,1.1,3.9,4,6,5.7V13.5c0-.9,1-1.3,1.6-1.3s1.6.6,1.6,1.5v22.7c0,0,5.2-5.1,5.2-5.1.7-.7,1.7-.9,2.5-.2s.6,1.8-.2,2.6l-8.1,8c-.7.7-1.8.3-2.6-.4Z"/><path class="cls-4" d="M50.8,20.5c-.8.6-2,0-2.5-.7s-1-1.1-1.5-1.6l-1.8-1.8-4.1-4.1c-.6-.6-.7-1.5-.4-2.1s1.5-1.2,2.1-.6l5.6,5.4c.2-.3.3-.6.3-.9V2.8c0-.9.8-1.7,1.7-1.6s1.5.8,1.5,1.7v7.6c0,1.5-.1,3,.2,4.4l5.4-5.3c.5-.5,1.5-.4,2,0s.8,1.4.4,2-1.2,1.4-1.9,2.1l-2.7,2.7c-1.4,1.4-2.6,2.9-4.2,4Z"/><path class="cls-5" d="M49.7,59c-2-.2-1.2-2.6-1.5-3.9-3.2-.4-8-2.3-8.2-6.1s.5-1.5,1.2-1.7,1.5.3,1.7,1.1c1.4,5,13.2,4.3,13.7.5s-.3-1.9-1.1-2.5c-3.2-2.5-10.6.3-13.9-4-1.6-2.2-1.7-5.7.5-7.7s3.8-2.2,6.1-2.4c.2-.6.1-1.3.1-1.9,0-1.1.5-2,1.6-1.9s1.7.8,1.6,2,0,1.2,0,1.9c3.2.4,7,1.8,7.6,5.4s-.3,1.6-1.1,1.8-1.7,0-2-1-.7-1.7-1.7-2.1c-2.9-1.4-6.3-1.4-9.2,0s-1.6,1.5-1.6,2.6.9,2,2,2.4c1.9.8,4,.6,6,.7s4.7.8,6,1.9c3,2.5,2.9,6.7.3,8.9-1.9,1.5-4.1,2.1-6.5,2.3v2.7c-.1.9-1,1.2-1.8,1.2Z"/></svg>