<?xml version="1.0" encoding="UTF-8"?><svg id="Layer_3" xmlns="http://www.w3.org/2000/svg" width="100" height="100" xmlns:xlink="http://www.w3.org/1999/xlink" viewBox="0 0 100 100"><defs><style>.cls-1{fill:url(#New_Gradient_Swatch-4);}.cls-2{fill:url(#New_Gradient_Swatch-5);}.cls-3{fill:url(#New_Gradient_Swatch-2);}.cls-4{fill:url(#New_Gradient_Swatch-12);}.cls-5{fill:url(#New_Gradient_Swatch-6);}.cls-6{fill:url(#New_Gradient_Swatch-11);}.cls-7{fill:url(#New_Gradient_Swatch-7);}.cls-8{fill:url(#New_Gradient_Swatch);}.cls-9{fill:url(#New_Gradient_Swatch-8);}.cls-10{fill:url(#New_Gradient_Swatch-3);}.cls-11{fill:url(#New_Gradient_Swatch-10);}.cls-12{fill:url(#New_Gradient_Swatch-9);}</style><linearGradient id="New_Gradient_Swatch" x1="2.1" y1="50.6" x2="103.3" y2="49.8" gradientUnits="userSpaceOnUse"><stop offset="0" stop-color="#e17bb1"/><stop offset="1" stop-color="#4a4ca0"/></linearGradient><linearGradient id="New_Gradient_Swatch-2" x1="2.1" y1="50.4" x2="103.3" y2="49.6" xlink:href="#New_Gradient_Swatch"/><linearGradient id="New_Gradient_Swatch-3" x1="2.1" y1="51.7" x2="103.4" y2="50.9" xlink:href="#New_Gradient_Swatch"/><linearGradient id="New_Gradient_Swatch-4" x1="2.2" y1="71.4" x2="103.5" y2="70.7" xlink:href="#New_Gradient_Swatch"/><linearGradient id="New_Gradient_Swatch-5" x1="1.8" y1="22.8" x2="103.1" y2="22.1" xlink:href="#New_Gradient_Swatch"/><linearGradient id="New_Gradient_Swatch-6" x1="1.9" y1="29.1" x2="103.2" y2="28.3" xlink:href="#New_Gradient_Swatch"/><linearGradient id="New_Gradient_Swatch-7" x1="2.1" y1="50.4" x2="103.3" y2="49.6" xlink:href="#New_Gradient_Swatch"/><linearGradient id="New_Gradient_Swatch-8" x1="2" y1="36.7" x2="103.2" y2="36" xlink:href="#New_Gradient_Swatch"/><linearGradient id="New_Gradient_Swatch-9" x1="1.8" y1="17.2" x2="103.1" y2="16.4" xlink:href="#New_Gradient_Swatch"/><linearGradient id="New_Gradient_Swatch-10" x1="2.2" y1="64.4" x2="103.4" y2="63.6" xlink:href="#New_Gradient_Swatch"/><linearGradient id="New_Gradient_Swatch-11" x1="2.1" y1="50.5" x2="103.3" y2="49.8" xlink:href="#New_Gradient_Swatch"/><linearGradient id="New_Gradient_Swatch-12" x1="2.1" y1="50.6" x2="103.3" y2="49.8" xlink:href="#New_Gradient_Swatch"/></defs><path class="cls-8" d="M80.7,81.5c2.9-.6,5.4-2.1,7.4-4.3,3.2-3.8,3.5-9,.8-13.1s-.4-1.3.2-1.8c3.4-2.5,6.9-6.3,7.5-10.9h-6.2c-.7,1.7-2.2,2.5-3.9,2.3s-2.8-1.6-2.9-3.3,1.2-3,2.6-3.3,3.1.6,4.1,1.9c1.9.4,4.1,0,6.3.1-.3-3.3-2.1-6.2-4.7-8s-5.3-1.2-7.4.6-1.4.4-1.8,0-.5-1.3.2-1.7c6.1-3.5,8.2-11.8,4-17.6s-7.2-5.5-11.7-5.2-1.4-.5-1.3-1.3c.6-6.6-4.4-12-11-12.2s-4.7.8-6.4,2.6c-.3,1.3.6,4-1.2,4s-1-3.1-1.1-4.8c2.2-3,5.7-4.4,9.4-4.1,7.1.5,12.7,6.1,12.7,13.4,7.9.3,14.5,5.5,15.1,13.4.3,3.5-.7,6.6-2.5,9.7,2.6.3,4.6,1.3,6.2,3.1,4.2,4.2,5.1,10.2,2.5,15.5-1.5,3-3.6,5.3-6.3,7.4,2.9,5.3,2.1,11.5-2,15.8s-4.6,3.5-7.4,4.4c-.4,7.9-6,14.3-13.8,15.4-3.8.5-7.6,0-10.9-1.9s-2.4-1.5-2.7-2.5l-.2-11c-2.1-.5-3.4-2.3-3.1-4.2s2.1-3.5,4.2-3.3,3,1.5,3.4,2.9-.7,3.3-1.9,4.3l-.2,10.7c2.5,2.1,5.4,2.8,8.5,2.9,7.9.2,14.1-5.7,14.3-13.7,0-.9.3-1.5,1.2-1.7ZM54.2,78.6c-.9.5-.9,1.5-.5,2.1s1.3.7,1.9.5c.9-.4,1.1-1.3.7-2s-1.3-1-2.1-.5Z"/><path class="cls-3" d="M42.6,83.2c-.3-.9-1.8-1.3-1.9-2.5h-9.8c0,0-8-10.5-8-10.5-.4-.5,0-1.3.4-1.5.6-.3,1.2-.2,1.6.3l7.1,9.3h8.7c.8-1.9,2.5-2.9,4.5-2.5s3.1,1.9,3.1,3.8-1.3,3.2-3.1,3.6v10.8c-.1.6-.8,1.3-1.3,1.7-2.7,2.2-6.1,3.5-9.6,3.4-8.8-.3-15.5-6.8-15.9-15.6-3.1-.9-5.8-2.4-7.9-4.8-3.8-4.3-4.4-10.2-1.6-15.3-7.4-5.7-10.9-15.1-4-22.7,1.7-1.9,3.9-3.1,6.5-3.3-1.5-2.4-2.4-4.8-2.6-7.5-.6-8.9,6.3-15.3,15.1-15.5,0-7.5,5.9-13.2,13.2-13.4s6.8,1.3,8.9,4.1c-.1,1.7.7,4.7-1.1,4.7s-1-2.6-1.2-3.9c-1.7-1.9-4.1-2.7-6.6-2.6-6.5.3-11.4,5.7-10.8,12.2s-.6,1.4-1.3,1.3c-4.4-.3-8.9,1.4-11.6,5.1-4.3,5.9-2.3,14.2,3.9,17.8.7.4.5,1.3.2,1.7s-1.3.6-1.8.1c-2.6-2.3-6.1-2.1-8.6.3-3.7,3.5-4.7,8.5-2.5,13.1,3.4,6.9,8.1,6.8,6.6,9.1-2.9,4.4-2.3,10,1.4,13.7,4.5,4.6,8,2.7,8,5.2,0,6.7,4.4,12.1,10.9,13.6,4.1.9,8.1,0,11.3-2.9v-10.5ZM44.3,81c1.1,0,1.7-.9,1.6-1.6s-.8-1.3-1.7-1.2-1.4.7-1.3,1.4.5,1.4,1.5,1.4Z"/><path class="cls-10" d="M58.9,66.8c-.4,1.8.7,5-1,5.2s-1.2-.2-1.3-.8v-4.3c-.1,0-5,0-5,0-.4,1.7.7,4.9-1,5.2s-1.3-.3-1.3-1v-4.2c-.1,0-4.6,0-4.6,0v4c0,.7-.6,1.2-1.3,1.2-1.9,0-.8-3.5-1.2-5.2-4.6.2-8.2-3.1-8.5-7.6h-4c-.7,0-1.1-.7-1.1-1.3,0-1.8,3.3-.7,5.1-1.1v-4.4s-4,0-4,0c-.7,0-1.1-.5-1.1-1s.3-1.3,1.1-1.3h4s0-4.7,0-4.7c-1.8-.5-5.1.8-5.1-1.2s.4-1.1,1.1-1.1h4c.6-4.3,4-7.2,8.4-7,.4-1.9-.7-5,1.1-5.3s1.3.3,1.3,1v4.3c1.6,0,3.1,0,4.6,0,.4-1.9-.7-4.9,1.1-5.2s1.3.3,1.3,1v4.3c0,0,4.9,0,4.9,0,.4-1.7-.7-5.2,1.2-5.3s.9,3.4,1.2,5.3c4.2,0,7.5,2.8,8.1,6.9,1.6.4,4.7-.7,4.7,1.2s-3.1.9-4.6,1.3v4.6c1.6.3,4.2-.6,4.6.9s-.2,1.3-.9,1.3h-3.7c0,.1,0,4.5,0,4.5,1.6.4,4.5-.7,4.6,1.2s-3.1.9-4.6,1.3c-.3,4.4-3.7,7.7-8.2,7.6ZM59.3,64.4c3,0,5.4-2.4,5.4-5.3v-15.6c0-3.2-2.7-5.3-5.8-5.3h-17.3c-3,0-5.5,2.3-5.5,5.3v15.7c.3,2.9,2.6,5.1,5.6,5.1h17.6Z"/><path class="cls-1" d="M62.9,81c-.8,0-1.2-.5-1.3-1.1s.4-1.2,1.2-1.2h4.4s8.9-11.7,8.9-11.7c-.9-1.3-1.1-2.8-.4-4.2s2-2.1,3.6-2c2.3.1,4,2.2,3.6,4.4-.4,2.1-2.5,3.6-4.8,3l-9.8,12.8h-5.5ZM79.1,66c1,0,1.7-.7,1.7-1.5s-.8-1.5-1.7-1.4-1.4.7-1.3,1.5.4,1.3,1.4,1.4Z"/><path class="cls-2" d="M70.6,30.9l-5.4-8.9c-2.5-.5-5-1.8-7.7-1.9-1.2,0-2.4,1.5-4,.7s-2.4-1.4-2.6-3c-.3-2.3,1.4-4.3,3.7-4.4s4.1,1.7,4,4.3l8.1,2.3,6,9.8c.3.5,0,1.2-.4,1.4-.5.3-1.2.3-1.6-.3ZM54.2,15.8c-1,.3-1.3,1.3-.9,2.1s1.1.9,1.9.7,1.2-1,.9-1.9-1-1.1-1.9-.8Z"/><path class="cls-5" d="M27.5,32.7c1.1,1.4,1.7,2.9.9,4.5s-2,2.3-3.8,2.2-3.7-1.9-3.6-3.9,1.9-3.7,4.2-3.6l7.5-12.1,4.5-1.3c.7-.2,1.4.1,1.5.8s-.1,1.3-.9,1.5l-3.7,1.1-6.7,11ZM24.9,37.1c.9,0,1.5-.7,1.5-1.4s-.5-1.3-1.2-1.5-1.8.4-1.8,1.3.5,1.6,1.5,1.6Z"/><path class="cls-7" d="M6.8,51.3c-.8,0-1.1-.7-1.1-1.3s.6-1,1.4-1h6.8c.8-1.5,2.3-2.4,4-2.1s2.8,1.8,2.7,3.5-1.2,2.9-2.7,3.3-3.3-.6-4-2.3h-7.1Z"/><path class="cls-9" d="M73.3,39.8c-1.8-.5-2.9-2-3-3.7s1.2-3.3,3.1-3.7,3.1.3,3.9,1.5.9,3,0,4.2-2.4,2.1-4.1,1.6ZM74.2,37.6c1.1,0,1.7-.9,1.6-1.7s-1-1.3-1.9-1.1-1.2.9-1.1,1.5.6,1.3,1.5,1.3Z"/><path class="cls-12" d="M44.5,20.6c-2.2,0-3.8-1.9-3.7-3.8s1.7-3.7,3.8-3.7,3.8,1.7,3.9,3.7-1.6,3.9-4,3.8ZM44,15.6c-.9.3-1.1,1.3-.7,2s1.3.9,2,.6,1.1-1.3.7-2-1.2-.9-2-.6Z"/><path class="cls-11" d="M20,68c-2.2,0-3.7-1.7-3.8-3.6s1.5-3.7,3.5-3.9,4,1.5,4.1,3.5c.1,2.1-1.5,4-3.9,4ZM19.8,65.7c1,.1,1.7-.5,1.7-1.3s-.5-1.5-1.4-1.6-1.5.6-1.6,1.4.5,1.4,1.3,1.5Z"/><path class="cls-6" d="M51,53.8h-6.3s-1.1,2.4-1.1,2.4c-.2.5-.9.6-1.3.6s-1-.5-.8-1.1l5-11.2c.3-.6.8-.9,1.3-.9s1,.3,1.3.9l4.9,10.7c.3.6.3,1.3-.2,1.6s-1.3.2-1.6-.3-.7-1.5-1.1-2.6ZM50,51.7l-2.3-5.2-2.2,5.2c1.6,0,2.9.1,4.5,0Z"/><path class="cls-4" d="M58.4,55.4c0,.8-.3,1.3-1,1.4s-1.4-.3-1.4-1.2v-10.7c0-.9.4-1.4,1.1-1.4s1.3.5,1.3,1.4v10.5Z"/></svg>